 <svg version="1.0" xmlns="http://www.w3.org/2000/svg" width="700.000000pt" height="700.000000pt" viewBox="0 0 700.000000 700.000000" preserveAspectRatio="xMidYMid meet">
<metadata>
Created by potrace 1.12, written by Peter Selinger 2001-2015
</metadata>
<g transform="translate(0.000000,700.000000) scale(0.100000,-0.100000)" fill="#000000" stroke="none">
<path d="M1880 6857 c-65 -11 -101 -34 -124 -79 -9 -18 -26 -46 -36 -63 -11
-16 -24 -39 -30 -50 -6 -11 -19 -33 -30 -50 -11 -16 -23 -37 -27 -45 -4 -8
-30 -53 -58 -100 -28 -47 -54 -92 -58 -100 -4 -8 -16 -28 -27 -45 -11 -16 -24
-39 -30 -50 -6 -11 -19 -33 -30 -50 -11 -16 -24 -39 -30 -50 -6 -11 -19 -33
-30 -50 -10 -16 -25 -41 -33 -55 -7 -14 -58 -101 -112 -195 -54 -93 -105 -181
-112 -195 -8 -14 -23 -38 -33 -55 -10 -16 -31 -52 -45 -80 -14 -27 -32 -59
-38 -70 -14 -23 -137 -247 -190 -345 -20 -36 -54 -101 -77 -145 -22 -44 -45
-87 -50 -95 -18 -30 -169 -352 -255 -545 -7 -16 -27 -59 -44 -95 -17 -36 -31
-73 -31 -81 0 -9 -7 -22 -15 -29 -8 -7 -15 -23 -15 -35 0 -12 -6 -28 -14 -34
-8 -6 -16 -24 -19 -39 -3 -15 -15 -52 -27 -82 -12 -30 -24 -64 -27 -75 -2 -11
-8 -29 -13 -40 -5 -11 -15 -45 -24 -75 -79 -278 -78 -394 5 -577 23 -52 138
-176 178 -193 48 -19 213 -1 301 33 41 16 96 43 125 60 57 35 134 88 147 100
14 14 52 37 62 37 11 0 6 -32 -8 -58 -8 -15 -22 -47 -31 -72 -10 -25 -23 -58
-30 -75 -7 -16 -27 -70 -45 -120 -18 -49 -37 -94 -42 -100 -4 -5 -8 -16 -8
-25 0 -8 -6 -27 -14 -42 -8 -15 -17 -40 -21 -57 -4 -17 -11 -33 -16 -36 -5 -4
-9 -14 -9 -23 0 -9 -7 -30 -15 -46 -8 -15 -15 -36 -15 -45 0 -10 -7 -26 -15
-37 -8 -10 -15 -28 -15 -39 0 -11 -6 -29 -14 -40 -7 -11 -16 -31 -19 -45 -5
-24 -14 -47 -58 -160 -11 -30 -23 -66 -26 -80 -3 -14 -12 -34 -19 -45 -8 -11
-14 -29 -14 -40 0 -12 -4 -25 -8 -30 -10 -11 -68 -166 -78 -208 -3 -15 -10
-30 -15 -33 -5 -3 -9 -13 -9 -22 0 -9 -7 -30 -15 -46 -8 -15 -15 -33 -15 -38
0 -6 -6 -24 -14 -41 -8 -18 -16 -41 -19 -52 -6 -23 -33 -100 -46 -130 -17 -41
-33 -91 -41 -125 -4 -19 -13 -48 -18 -65 -6 -16 -18 -57 -27 -90 -9 -33 -21
-75 -27 -93 -11 -38 -24 -112 -39 -222 -6 -41 -15 -91 -21 -111 -12 -41 -6
-195 11 -288 43 -230 209 -344 413 -281 40 12 110 40 156 61 46 22 85 39 88
39 15 0 208 157 260 211 55 57 199 265 225 322 5 12 18 36 29 52 28 44 45 74
75 130 14 28 35 64 45 80 10 17 31 52 46 80 15 27 45 79 67 115 22 36 48 81
59 100 32 56 82 143 95 165 7 11 15 27 19 35 3 8 19 41 35 73 16 31 29 65 29
75 0 10 5 23 11 29 16 16 43 139 57 261 6 58 5 75 -6 84 -10 9 -18 9 -30 0
-10 -7 -28 -18 -42 -25 -126 -63 -332 -260 -425 -406 -6 -9 -40 -61 -76 -116
-36 -55 -77 -119 -90 -142 -13 -23 -43 -72 -67 -110 -23 -37 -48 -77 -55 -88
-6 -11 -24 -36 -39 -56 -16 -20 -28 -40 -28 -44 0 -14 -153 -196 -200 -238
-67 -60 -127 -100 -139 -92 -14 8 -14 86 0 121 5 16 14 58 19 94 5 36 14 85
21 110 6 25 18 72 26 105 8 33 19 76 23 95 16 64 52 184 75 255 13 39 26 85
30 102 4 18 11 35 16 38 5 4 9 14 9 23 0 9 7 30 15 46 8 15 15 36 15 45 0 10
7 26 15 37 8 10 15 28 15 39 0 11 7 33 15 49 8 15 15 35 15 43 0 8 6 27 14 41
8 15 21 45 29 67 48 128 74 196 88 230 4 11 17 43 27 70 88 228 136 341 222
530 17 39 38 85 46 103 8 17 20 47 28 65 37 83 56 127 80 187 15 36 31 74 36
85 5 11 16 38 25 60 9 22 23 53 31 68 8 16 14 35 14 44 0 8 6 27 14 41 17 34
35 86 47 137 6 21 14 44 18 50 5 5 11 24 14 40 3 17 11 50 18 75 32 122 38
152 50 245 18 155 1 419 -29 443 -25 19 -196 15 -257 -7 -105 -38 -133 -56
-215 -140 -77 -77 -183 -221 -210 -283 -11 -25 -15 -32 -78 -126 -23 -35 -42
-65 -42 -68 0 -14 -85 -117 -137 -165 -88 -81 -183 -121 -183 -76 0 7 7 22 15
33 8 10 15 27 15 37 0 11 6 31 14 45 8 15 22 47 31 72 10 25 23 59 30 75 29
68 35 82 55 135 12 30 32 78 45 105 12 28 33 75 45 105 26 65 60 142 99 225
16 33 43 92 61 130 49 105 267 541 305 610 18 33 46 85 62 115 63 118 106 194
156 278 29 48 56 94 60 102 4 8 16 29 27 45 11 17 23 37 27 45 4 8 26 43 50
78 24 35 43 65 43 67 0 8 69 106 176 250 62 83 122 168 133 190 12 22 26 47
30 55 33 60 41 80 41 97 0 10 5 24 10 29 6 6 13 35 17 65 3 30 10 62 15 71 20
39 -20 69 -142 106 -82 25 -140 31 -210 19z"></path>
<path d="M4208 6336 c-47 -14 -84 -49 -111 -106 -19 -39 -21 -61 -20 -171 1
-73 8 -152 17 -190 8 -35 17 -80 19 -99 4 -33 12 -69 37 -170 6 -25 15 -63 19
-85 7 -39 12 -57 45 -161 9 -29 16 -60 16 -70 0 -11 7 -28 15 -38 8 -11 15
-30 15 -42 0 -12 6 -35 14 -51 8 -15 22 -45 31 -66 17 -40 36 -54 57 -43 60
31 114 77 129 111 5 11 18 35 30 54 24 40 51 126 74 236 15 69 17 130 14 433
l-4 354 -60 31 c-78 41 -116 56 -190 73 -71 16 -97 16 -147 0z"></path>
<path d="M2860 6316 c-10 -10 -55 -19 -124 -26 -60 -6 -117 -15 -128 -21 -14
-8 -18 -23 -19 -72 -1 -34 -3 -75 -5 -92 -2 -16 -7 -96 -13 -176 -5 -81 -14
-164 -20 -185 -6 -22 -11 -68 -11 -104 0 -36 -7 -96 -15 -135 -8 -38 -15 -86
-15 -105 0 -19 -6 -73 -14 -120 -21 -117 -37 -223 -46 -300 -10 -81 -27 -184
-46 -275 -8 -38 -14 -87 -14 -107 0 -20 -5 -49 -11 -65 -6 -15 -14 -57 -19
-93 -15 -111 -38 -254 -86 -535 -9 -49 -20 -119 -25 -155 -5 -36 -13 -85 -18
-110 -9 -40 -24 -138 -37 -240 -3 -19 -11 -75 -19 -125 -8 -49 -19 -121 -25
-160 -6 -38 -15 -112 -20 -162 -5 -51 -14 -110 -19 -130 -6 -21 -11 -65 -12
-98 0 -33 -4 -82 -10 -110 -5 -27 -13 -102 -18 -165 -5 -63 -14 -153 -19 -200
-6 -47 -13 -144 -17 -215 l-6 -130 47 -30 c55 -35 130 -65 162 -65 51 0 126
69 164 150 47 101 90 288 108 470 15 146 39 342 44 358 3 9 10 53 16 97 6 44
17 121 24 170 8 50 22 140 30 200 9 61 24 155 32 210 30 198 44 291 54 370 6
44 14 91 19 105 5 14 12 57 15 97 3 39 11 84 16 98 6 14 10 46 10 69 0 24 7
65 15 92 8 27 15 65 15 84 0 19 5 51 10 70 6 19 15 64 19 100 9 68 25 153 43
230 5 25 14 70 18 100 9 58 28 155 55 280 9 41 22 104 30 140 17 81 38 175 59
260 9 36 21 84 26 108 5 23 14 51 20 61 5 11 10 30 10 43 0 13 7 36 15 52 8
15 15 37 15 47 0 10 6 33 14 51 18 42 56 169 56 185 0 34 -113 131 -222 191
-63 35 -87 39 -108 18z"></path>
<path d="M6200 6254 c-14 -7 -32 -14 -40 -14 -8 0 -33 -7 -55 -14 l-40 -14 -6
-79 c-4 -43 -11 -143 -17 -223 -6 -80 -15 -183 -21 -230 -6 -47 -16 -125 -22
-175 -23 -193 -27 -222 -39 -285 -20 -110 -30 -141 -48 -146 -9 -3 -25 -10
-34 -15 -10 -5 -23 -9 -29 -9 -7 0 -75 -27 -153 -59 -168 -71 -251 -101 -274
-101 -9 0 -48 15 -87 33 -103 49 -120 55 -302 102 l-103 27 -39 -31 c-21 -17
-72 -66 -113 -109 -81 -87 -150 -210 -207 -372 -7 -19 -15 -44 -17 -55 -7 -27
-33 -122 -47 -165 -6 -19 -14 -53 -18 -75 -9 -43 -32 -146 -47 -210 -9 -36
-27 -121 -53 -245 -10 -51 -31 -232 -32 -270 0 -100 30 -276 73 -425 20 -68
91 -207 136 -266 74 -97 135 -143 247 -188 33 -13 213 -15 221 -2 3 4 19 11
36 14 51 11 137 74 187 137 58 74 127 201 154 284 11 33 24 68 28 76 5 9 12
36 16 60 4 25 10 50 14 55 6 10 21 85 46 240 22 134 37 430 30 600 -6 145 -5
151 17 181 100 136 183 208 280 245 90 34 89 36 82 -158 -3 -92 -9 -224 -15
-293 -17 -227 -22 -548 -9 -675 6 -66 15 -156 19 -201 4 -44 11 -86 15 -92 4
-7 11 -33 16 -60 4 -26 15 -65 23 -87 14 -36 19 -40 54 -43 21 -2 83 -1 138 3
l100 7 17 56 c37 128 67 306 78 462 5 63 11 153 15 200 4 47 10 254 15 460 4
206 10 398 13 425 2 28 8 97 12 155 6 85 11 109 28 128 11 12 27 22 35 22 12
0 47 16 92 41 8 5 22 12 30 16 48 21 151 97 188 139 24 27 51 57 60 67 37 40
-25 73 -193 102 -100 18 -145 34 -177 63 -23 20 -23 39 2 87 11 22 20 43 20
48 0 5 6 23 14 40 28 66 68 289 65 363 -3 78 -22 202 -35 231 -8 17 -14 36
-14 42 0 17 -29 61 -69 104 -68 73 -195 108 -261 71z m-1113 -2111 c38 -88 20
-521 -26 -628 -8 -19 -18 -55 -42 -150 -6 -22 -14 -44 -20 -50 -5 -5 -9 -18
-9 -30 0 -12 -7 -30 -15 -41 -8 -10 -15 -28 -15 -40 0 -33 -26 -61 -46 -49
-22 14 -65 91 -75 135 -4 19 -13 55 -19 80 -13 49 -7 170 12 249 30 130 55
207 84 264 8 16 14 37 14 47 0 9 7 23 15 30 8 7 15 18 15 25 0 16 67 164 82
183 17 20 28 14 45 -25z"></path>
<path d="M3580 5950 c-52 -5 -115 -13 -140 -19 -25 -6 -59 -11 -76 -11 -17 0
-38 -7 -45 -16 -33 -39 -72 -197 -88 -349 -17 -158 -27 -227 -39 -266 -10 -33
-23 -104 -42 -224 -5 -33 -13 -73 -19 -88 -6 -16 -11 -44 -11 -63 0 -20 -5
-44 -10 -55 -6 -10 -15 -47 -19 -82 -9 -61 -22 -136 -42 -228 -6 -25 -14 -73
-20 -105 -5 -32 -16 -95 -24 -139 -8 -44 -20 -114 -25 -155 -6 -41 -15 -88
-19 -105 -5 -16 -12 -57 -15 -90 -4 -33 -10 -82 -15 -110 -6 -27 -17 -111 -25
-185 -8 -74 -22 -196 -31 -270 -13 -105 -16 -198 -12 -420 4 -282 12 -362 43
-422 8 -14 14 -31 14 -38 0 -16 58 -101 84 -123 48 -41 70 -47 112 -32 34 12
117 50 193 88 l24 12 -2 200 c-2 195 11 545 30 815 6 74 14 189 19 255 5 66
13 154 19 195 22 166 33 249 41 325 5 44 14 96 19 115 6 19 11 53 11 76 0 22
7 63 15 90 8 27 15 61 15 75 0 14 6 45 14 70 7 24 21 71 31 104 10 33 23 76
30 95 23 61 154 474 161 503 3 15 10 30 15 33 5 3 9 15 9 27 0 12 6 42 14 67
30 95 46 181 46 245 l0 67 -50 45 c-28 25 -58 59 -66 74 -8 16 -18 28 -22 28
-4 -1 -50 -5 -102 -9z"></path>
<path d="M4025 4910 c-11 -5 -33 -9 -48 -9 -56 -2 -138 -62 -164 -121 -23 -50
-32 -121 -43 -315 -8 -157 -29 -317 -51 -390 -4 -16 -13 -55 -18 -85 -6 -30
-17 -89 -26 -130 -20 -96 -32 -209 -41 -390 -24 -458 9 -703 109 -808 73 -77
146 -81 284 -17 l32 15 5 113 c11 270 25 476 35 526 6 29 11 80 11 111 0 32 7
94 15 137 8 43 15 98 15 123 0 25 7 72 15 103 8 32 15 74 15 94 0 19 6 65 14
102 18 83 36 173 46 231 24 135 109 467 136 528 8 18 14 37 14 42 0 9 -56 40
-74 40 -22 1 -67 47 -75 76 l-7 29 -90 2 c-49 1 -98 -2 -109 -7z"></path>
</g>
</svg>