<?xml version="1.0" standalone="no"?>
<!DOCTYPE svg PUBLIC "-//W3C//DTD SVG 20010904//EN"
 "http://www.w3.org/TR/2001/REC-SVG-20010904/DTD/svg10.dtd">
<svg version="1.0" xmlns="http://www.w3.org/2000/svg"
 width="700.000000pt" height="700.000000pt" viewBox="0 0 700.000000 700.000000"
 preserveAspectRatio="xMidYMid meet">
<metadata>
Created by potrace 1.11, written by Peter Selinger 2001-2013
</metadata>
<g transform="translate(0.000000,700.000000) scale(0.100000,-0.100000)"
fill="#000000" stroke="none">
<path d="M1845 6847 c-17 -7 -40 -19 -52 -27 -11 -9 -81 -117 -153 -240 -73
-124 -181 -306 -240 -405 -59 -100 -119 -202 -133 -227 -14 -26 -67 -118 -118
-205 -89 -152 -237 -419 -382 -688 -112 -208 -276 -555 -445 -945 -104 -238
-182 -525 -182 -666 0 -146 53 -274 158 -382 74 -76 87 -81 188 -76 140 8 250
51 419 165 58 39 109 69 112 65 3 -3 -4 -32 -17 -63 -90 -228 -126 -320 -156
-403 -19 -52 -39 -104 -44 -115 -5 -11 -19 -47 -29 -80 -11 -33 -28 -82 -39
-110 -31 -81 -89 -236 -112 -300 -12 -33 -35 -96 -51 -140 -17 -44 -41 -111
-54 -150 -14 -38 -29 -79 -35 -90 -6 -11 -33 -85 -61 -165 -123 -348 -186
-571 -204 -715 -3 -22 -11 -73 -19 -113 -13 -71 -14 -229 -2 -302 20 -109 66
-205 124 -255 55 -48 111 -68 186 -68 75 1 116 12 256 71 90 38 148 74 245
156 150 126 229 232 422 571 67 116 129 224 139 242 177 301 274 482 274 511
0 8 7 26 15 40 17 33 44 162 52 258 8 93 -3 97 -101 36 -83 -52 -157 -114
-259 -220 -85 -87 -134 -154 -267 -366 -152 -242 -253 -398 -281 -431 -146
-174 -249 -265 -285 -251 -20 8 -17 45 20 227 52 257 189 728 244 843 6 12 18
46 27 76 10 30 34 98 55 150 21 52 77 196 125 320 48 124 129 320 180 435 273
619 357 836 411 1054 45 187 53 251 49 426 -4 152 -16 224 -41 242 -42 30
-224 10 -319 -36 -105 -51 -249 -210 -358 -397 -152 -261 -264 -390 -379 -438
-55 -23 -62 -9 -35 65 24 64 203 497 237 574 10 22 37 83 60 135 43 99 386
791 443 895 215 390 363 630 517 840 110 150 175 246 201 297 22 43 71 178 64
178 -2 0 2 22 9 48 21 79 6 94 -139 140 -69 22 -195 27 -240 9z"/>
<path d="M4230 6343 c-69 -22 -96 -44 -130 -110 -19 -36 -22 -59 -21 -150 0
-113 2 -136 26 -268 19 -105 23 -123 29 -143 3 -9 7 -28 10 -42 17 -95 82
-340 102 -387 8 -17 14 -37 14 -44 0 -24 62 -148 78 -154 20 -7 93 37 127 76
43 51 82 139 112 250 l28 104 1 378 1 378 -66 33 c-112 57 -261 94 -311 79z"/>
<path d="M2850 6314 c-23 -11 -51 -16 -160 -30 -67 -8 -89 -16 -94 -32 -2 -9
-8 -66 -11 -127 -4 -60 -8 -123 -10 -140 -2 -16 -6 -70 -10 -119 -3 -49 -7
-92 -10 -95 -2 -4 -6 -38 -10 -76 -7 -86 -13 -139 -26 -230 -6 -38 -12 -90
-15 -115 -2 -25 -11 -92 -20 -150 -8 -58 -18 -118 -20 -135 -2 -16 -6 -41 -9
-55 -2 -14 -7 -43 -10 -65 -3 -22 -12 -76 -20 -120 -19 -109 -23 -133 -30
-185 -5 -41 -17 -115 -30 -180 -13 -66 -29 -162 -40 -235 -3 -23 -7 -50 -9
-62 -3 -12 -8 -43 -12 -70 -3 -26 -8 -57 -10 -68 -5 -24 -72 -444 -80 -495 -3
-19 -7 -46 -9 -60 -2 -14 -11 -72 -20 -130 -9 -58 -18 -116 -21 -130 -2 -14
-8 -61 -14 -105 -6 -44 -13 -97 -16 -117 -3 -21 -7 -50 -9 -65 -2 -15 -8 -57
-14 -93 -6 -36 -13 -101 -16 -145 -3 -44 -8 -93 -10 -110 -2 -16 -7 -59 -10
-95 -3 -36 -7 -78 -10 -95 -2 -16 -7 -66 -10 -110 -4 -44 -9 -96 -10 -115 -2
-19 -7 -84 -11 -143 -6 -98 -5 -109 12 -122 32 -24 139 -75 171 -81 60 -12
138 53 184 153 56 120 81 238 124 583 33 266 35 282 40 300 2 8 7 40 10 70 3
30 7 62 10 70 2 8 7 38 10 65 3 28 15 109 26 180 11 72 22 144 25 160 2 17 6
46 9 65 3 19 10 64 15 100 11 78 20 136 25 169 2 13 7 45 10 70 3 25 10 66 15
91 5 25 18 108 30 185 12 77 27 174 35 215 8 41 16 93 19 115 11 93 131 715
176 915 12 52 23 102 25 110 37 166 49 216 66 275 37 128 61 209 84 280 42
129 42 130 -7 178 -51 51 -96 85 -168 127 -61 36 -94 42 -130 24z"/>
<path d="M6158 6243 c-55 -17 -90 -33 -92 -42 -3 -9 -8 -61 -11 -116 -8 -106
-10 -139 -19 -250 -7 -78 -12 -125 -26 -235 -5 -41 -12 -100 -15 -130 -3 -30
-10 -82 -15 -115 -5 -33 -12 -80 -15 -105 -10 -70 -34 -153 -48 -166 -13 -13
-468 -194 -487 -194 -6 0 -61 20 -122 45 -61 25 -171 62 -244 81 l-134 35 -32
-25 c-61 -46 -167 -166 -210 -239 -94 -155 -145 -307 -234 -702 -60 -265 -64
-285 -70 -335 -2 -19 -6 -46 -9 -60 -4 -22 -17 -146 -18 -175 0 -17 13 -151
18 -176 41 -213 60 -272 127 -402 67 -127 152 -218 252 -267 56 -28 82 -34
149 -38 197 -10 336 88 452 319 62 123 118 298 140 439 4 25 9 54 11 65 24
121 36 298 38 577 l2 236 39 49 c91 115 212 207 298 227 52 12 53 -22 21 -544
-20 -321 -6 -696 32 -886 26 -128 43 -174 69 -184 29 -11 246 -3 258 9 22 22
79 307 92 461 4 41 8 93 10 115 8 92 18 339 30 755 10 335 24 513 41 542 4 5
39 25 80 43 83 38 191 107 245 157 63 57 100 105 93 121 -8 23 -91 53 -204 73
-73 14 -145 40 -166 61 -28 28 -29 35 -10 71 50 97 99 319 100 452 2 237 -62
384 -191 445 -79 38 -122 39 -225 8z m-1073 -2091 c33 -85 22 -489 -16 -607
-5 -16 -20 -68 -33 -115 -31 -106 -44 -147 -62 -183 -8 -16 -14 -37 -14 -47 0
-10 -7 -26 -15 -34 -23 -23 -50 -2 -81 64 -57 121 -63 261 -18 439 25 97 86
272 103 296 4 6 15 29 24 52 23 58 58 136 69 150 12 15 34 7 43 -15z"/>
<path d="M3628 5955 c-2 -2 -36 -6 -76 -9 -40 -4 -78 -9 -85 -11 -7 -2 -36 -6
-65 -10 -30 -3 -62 -10 -72 -15 -41 -22 -79 -182 -115 -495 -4 -27 -8 -58 -11
-67 -3 -9 -7 -27 -9 -40 -28 -146 -38 -197 -55 -283 -11 -55 -21 -114 -24
-132 -2 -17 -6 -35 -9 -40 -3 -5 -13 -53 -22 -108 -10 -55 -19 -109 -22 -120
-2 -11 -6 -31 -8 -45 -2 -14 -13 -72 -24 -130 -11 -58 -22 -121 -25 -140 -6
-37 -13 -78 -21 -120 -3 -14 -7 -43 -10 -65 -3 -22 -8 -51 -11 -65 -2 -14 -6
-36 -9 -50 -7 -42 -34 -232 -40 -285 -3 -27 -8 -61 -10 -75 -3 -14 -7 -50 -10
-80 -3 -30 -8 -66 -10 -80 -19 -124 -27 -583 -12 -775 10 -144 58 -257 138
-329 53 -48 75 -46 217 20 l102 48 1 160 c1 89 2 215 4 281 2 108 5 173 20
475 6 115 22 327 30 410 3 25 8 70 10 100 5 51 8 82 20 170 3 19 7 55 10 80 6
46 15 113 20 140 2 8 8 51 14 95 7 44 13 91 15 105 15 103 60 270 137 512 105
329 120 376 119 383 0 3 6 18 14 33 8 15 22 59 31 97 9 39 18 79 21 90 13 54
24 135 24 176 0 42 -4 50 -65 114 -36 37 -65 71 -65 76 0 7 -55 10 -62 4z"/>
<path d="M3993 4904 c-66 -14 -103 -33 -141 -72 -51 -53 -64 -103 -78 -297
-11 -155 -12 -171 -19 -236 -11 -106 -11 -106 -55 -314 -12 -55 -23 -116 -26
-135 -2 -19 -8 -60 -13 -90 -9 -51 -19 -157 -27 -290 -11 -166 -4 -463 12
-565 29 -182 106 -290 215 -302 33 -4 172 36 190 55 7 7 12 73 24 322 3 58 7
130 10 160 2 30 7 84 10 120 3 36 8 83 10 105 3 22 7 71 10 110 4 38 8 72 10
75 1 3 6 39 10 80 4 41 9 84 11 95 3 11 14 80 25 154 11 74 22 137 24 140 2 4
6 27 10 51 4 25 13 72 20 105 8 33 17 76 20 95 11 64 83 344 109 422 14 42 26
78 26 81 0 2 -27 16 -59 31 -48 22 -63 35 -80 69 l-21 42 -82 1 c-46 0 -111
-5 -145 -12z"/>
</g>
</svg>
